<svg xmlns="http://www.w3.org/2000/svg" version="1.1" xmlns:xlink="http://www.w3.org/1999/xlink" xmlns:svgjs="http://svgjs.dev/svgjs" width="1500" height="1500" viewBox="0 0 1500 1500"><rect width="1500" height="1500" fill="#000000"></rect><g transform="matrix(0.6666666666666666,0,0,0.6666666666666666,250.00000000000017,187.66666666666674)"><svg viewBox="0 0 320 360" data-background-color="#0080ff" preserveAspectRatio="xMidYMid meet" height="1687" width="1500" xmlns="http://www.w3.org/2000/svg" xmlns:xlink="http://www.w3.org/1999/xlink"><g id="tight-bounds" transform="matrix(1,0,0,1,-5.684341886080802e-14,0)"><svg viewBox="0 0 320 360" height="360" width="320"><g><svg></svg></g><g><svg viewBox="0 0 320 360" height="360" width="320"><g><path d="M85.508 32.884c0-1.117 0.558-2.233 1.675-2.233 1.117 0 2.233 0.558 2.234 2.233 0.558 0 1.675 0 2.233-0.558 2.233 0 4.467-0.558 6.141 0 1.675 0.558 2.792 0.558 4.467 1.117 1.675 0.558 2.792 0 3.908-0.559 2.233-0.558 3.908-1.675 6.141-2.233 1.117-0.558 1.675-0.558 2.792-0.558 1.117-0.558 2.233-0.558 3.908-1.117 2.792-0.558 5.583-1.117 7.817-2.233 2.233-1.117 4.467-1.117 6.699-1.675 1.117 0 1.675-0.558 2.792-1.117 0.558 0 0.558-0.558 1.116-1.116 1.117-0.558 1.675-1.117 2.792-0.559 0.558 0.558 1.675 0.558 2.233 0h0.559c3.35 0 6.7-0.558 10.608 0 0.558 0 1.117 0 1.116 0 1.675-1.117 3.908-1.117 6.142-1.116 0.558 0 1.675 0 2.233 0h0.558c2.233 0 4.467 0 6.142 0.558 1.675 0 2.792 0.558 4.466 1.117 1.675 0 2.792 0 4.467 0.558 1.117 0 2.233 0 3.35 0 0.558 0 1.117 0 1.116 0 2.233 0.558 4.467 0.558 6.7 0.558 1.675 0.558 3.35 1.117 5.583 1.117 0.558 0 1.117 0 1.675 0 0.558 0 1.117 0.558 1.675 0.558l0.558 0.559c2.233 0 3.908 1.117 6.142 1.116 0.558 0 1.675 0 2.233 0.559 1.675 1.117 3.908 1.675 6.141 1.675 1.117 0 1.675 0.558 2.234 1.116 1.675 0.558 2.792 1.117 4.466 1.675 1.117 0.558 2.233 0 3.35 0.558 1.675 0.558 3.908 1.117 5.583 2.792 1.117 1.117 2.233 1.117 3.908 2.233 0.558 0 1.117 0.558 1.675 1.117 1.675 1.117 3.35 2.233 5.025 2.791 0.558 0 1.117 0.558 1.675 0.559 1.675 1.117 3.35 2.792 5.583 3.908 1.117 0.558 1.675 1.117 2.792 1.675h0.558c1.675 1.675 3.908 2.792 5.583 4.466 1.675 1.675 2.792 2.792 5.025 3.909 0 0 0 0 0 0.558 0.558 1.117 1.117 1.675 2.233 2.233 1.117 0.558 1.675 1.117 2.234 1.675 1.675 1.117 3.35 2.233 4.466 3.35 0.558 0.558 1.117 1.117 2.233 2.233 0.558 0.558 1.117 1.117 1.675 1.117 2.233 0.558 3.35 2.233 5.025 3.908 1.117 1.117 2.792 2.792 3.908 3.908 0.558 0.558 1.117 1.675 1.675 2.792 1.117 3.35 2.792 6.7 4.467 9.491 0 0 0 0.558 0.558 1.117v0.558c1.117 1.117 1.675 2.792 2.792 3.908 0.558 0.558 0.558 1.117 1.116 1.675 1.117 1.675 1.675 3.908 2.792 5.583 1.675 2.792 2.792 5.583 3.908 8.375v0.558c0.558 1.117 1.117 2.233 1.675 3.908 0 1.117 1.117 2.233 1.675 3.909 0.558 2.792 2.233 5.583 2.791 8.933 0 0.558 0.558 1.117 0.559 2.233 0.558 1.675 1.117 3.35 1.675 5.025 0 0.558 0.558 1.117 1.116 1.675 1.117 1.117 1.117 2.233 1.117 3.35-0.558 2.233 0 4.467 0.558 6.699 0 0.558 0 1.117 0 2.234 0.558 2.233 1.117 5.025 1.117 7.258 0 0.558 0 1.675 0 2.233 0 1.675 0.558 3.35 1.675 5.025 0 0.558 0.558 0.558 0.558 0.558 0.558 0.558 1.117 1.675 1.675 2.233 0.558 0.558 0.558 0.558 1.117 1.117 1.117 1.117 1.675 2.233 1.675 3.908 0 0.558-0.558 1.675-0.559 2.233 0 0.558 0 1.675 0.559 2.234 0.558 0.558 0.558 1.117 0.558 1.675 0 0.558-0.558 1.117-1.117 1.116v0c-0.558 1.675-2.792 2.233-3.35 3.908-0.558 2.233-1.117 4.467-1.674 6.7-0.558 1.675-0.558 2.792-0.559 4.467 0 1.675-0.558 2.792-0.558 4.466-0.558 2.233-1.117 4.467-1.675 6.7 0 1.117-0.558 2.233-0.558 3.35 0.558 0.558 1.117 1.117 1.675 1.116 1.117 1.117 2.233 2.233 3.349 3.35 0.558 0.558 0.558 1.117 0 1.117-0.558 0.558-1.117 0.558-1.674 0.558-0.558-0.558-1.675-1.117-2.234-1.116-0.558-0.558-1.675-1.117-2.791-0.559 0 1.117-0.558 2.233-0.559 2.792-0.558 1.117-1.117 2.792-1.116 3.908-0.558 2.233-1.675 3.908-2.233 6.142-1.117 2.792-2.233 5.025-3.35 7.258-0.558 1.117-1.117 2.233-1.675 3.35v0c0 1.675-1.675 3.35-2.234 5.024-1.117 2.233-2.233 4.467-3.349 7.258-0.558 1.117-1.117 2.233-1.675 2.792-1.117 2.792-2.233 5.025-3.909 7.258-1.117 1.675-2.233 2.792-3.349 3.35-1.117 1.117-2.233 2.233-3.35 3.35-0.558 0.558-1.117 1.117-1.675 1.675-0.558 0.558-0.558 0.558-1.117 1.116-1.117 1.675-2.792 2.792-3.908 4.467-1.117 1.117-1.675 2.233-3.35 3.35-1.117 1.117-2.233 2.792-3.908 3.35-0.558 0.558-1.117 1.675-1.675 2.233-0.558 0.558-1.117 1.675-1.675 2.233 0 1.117 0.558 2.233 0.558 2.792 0 1.675-1.675 2.233-2.791 1.116-1.675-1.117-1.675-1.117-3.35 0-1.675 1.117-3.35 2.792-5.583 3.35-0.558 0-0.558 0.558-1.117 0.559-1.117 0.558-1.675 1.675-2.792 2.233-1.117 1.117-2.792 1.675-3.908 2.791-0.558 0.558-1.117 0.558-1.675 1.117-1.675 1.117-3.35 1.675-5.024 3.35-0.558 0.558-1.117 0.558-1.675 1.117 0 0.558 0 0.558 0 1.116 0 1.117-1.117 2.233-2.792 1.675-1.675-0.558-2.792 0-4.466 0-1.675 0.558-3.35 1.675-5.025 2.233-0.558 0-1.117 0.558-1.675 1.117-1.675 1.117-3.35 1.675-5.025 2.233-1.117 0-2.233 1.117-3.35 1.117-0.558 0-1.117 0.558-1.675 0.558h-0.558c-2.233 1.675-4.467 2.792-6.7 4.467-0.558 0-0.558 0.558-1.117 1.116-0.558 1.117-1.117 1.675-2.233 1.675-2.792 0-3.908 2.233-3.35 4.467 0 0.558 0.558 1.117 0.559 1.675 0.558 1.117 0 2.233-0.559 2.791-0.558 0.558-2.233 0.558-2.791-0.558-1.117-1.117-1.675-2.233-2.234-3.908-0.558-1.117-1.675-2.233-2.791-2.792-1.117-0.558-2.233-0.558-3.35 0-0.558 0-0.558 0.558-1.117 0.558-1.117 1.117-2.792 1.675-4.466 1.117-0.558 0-1.675 0-1.675 0.558-0.558 0.558-0.558 1.675 0 2.234 1.117 1.117 0.558 2.233 0.558 3.908 0 2.233-1.675 3.35-3.908 2.233-0.558-0.558-1.117-0.558-1.675-1.117-0.558 0-0.558-0.558-0.558-1.116-0.558-0.558-0.558-1.675-1.117-2.792-1.117 0.558-2.233 0.558-3.35 1.117-0.558 0-1.117 0.558-1.675 0.558-1.675 0-2.233 0-2.791-1.675-0.558-1.675-1.675-1.675-2.792-2.233-2.233-0.558-5.025-0.558-7.258-1.675h-0.558c-2.233-1.675-4.467-1.675-7.258-1.675-1.675 0-3.35 0.558-5.025 0.558-1.675 0-2.792 0.558-3.908 1.675-0.558 0.558-1.117 1.117-1.675 1.117-0.558-0.558-0.558-1.117-1.117-1.675v-0.558c0-0.558-0.558-1.117-1.116-0.559-1.117 0.558-2.233-0.558-3.35-1.116-0.558-0.558-1.675-1.675-1.675-2.792-0.558-0.558-1.117-1.117-1.675-1.116-1.117 0-2.792-0.558-3.908-0.559-0.558 0-1.117 0-1.117-0.558-0.558-0.558-1.117-0.558-2.233-0.558-0.558 0-0.558-0.558-1.117-0.559 1.117 1.117 1.675 2.233 2.233 3.35 0 0.558 0.558 0.558 0.559 1.117 0.558 1.117 0 1.675-1.675 1.675-1.117 0-1.117 0-1.675 0.558 0 1.117 0 1.675 0 2.792 0 0.558 0 1.117-1.117 1.675 0 0-0.558 0-0.558 0.558-0.558 0.558-0.558 1.117 0 1.675 1.675 1.117 2.792 1.675 4.466 2.233 1.675 0 1.675 1.117 2.234 2.233 0.558 1.117 0 1.675-0.559 2.792-1.117 1.117-2.233 2.233-3.35 3.35-1.675 0.558-2.792 2.233-4.466 2.233-1.117 0-2.233-0.558-2.792-1.675-0.558-2.792-0.558-5.025 0.559-7.816 0-0.558 0.558-1.117 0-1.675-5.025 0-5.025-1.117-5.025-1.675 0-1.117 0.558-1.675 0.558-2.792 0.558-1.117 0-1.675-1.675-2.233-0.558 0-1.117 0-1.675 0-0.558 0-0.558-0.558-1.675-0.558 1.117-0.558 1.675-0.558 2.792-1.117-0.558-2.233-1.117-3.908-2.792-5.025-0.558-0.558-1.117-1.117-1.116-2.233 0-1.675-1.117-2.792-1.675-3.908-1.117-1.675-3.35-2.233-5.025-2.233-1.675-0.558-2.792-0.558-4.467-1.117-1.675-0.558-3.35-2.233-5.024-2.792-0.558-0.558-1.117-1.117-2.234-1.674-2.233-1.117-3.908-2.792-5.583-4.467-1.117-0.558-1.675-1.675-2.791-2.233-1.117-1.117-1.675-2.233-2.792-2.792-1.117-1.117-2.233-2.233-3.908-3.35-1.675-1.117-2.792-2.792-4.467-4.466-1.117-1.675-2.792-2.792-4.466-3.908-0.558 0-1.117 0-1.675 0-0.558 0-1.117 0.558-1.675 0.558-1.675 0.558-2.792 1.675-4.467 2.233 0.558-0.558 0.558-0.558 0-1.675-0.558-0.558-1.117-1.117-1.674-1.116-1.117 0-2.233 0-3.35 0-2.233 0-4.467 0.558-6.7 0.558-1.675 0-3.908 0.558-5.583 1.117 0.558 1.117 0.558 1.675 1.116 2.791-1.117 0.558-2.233 0.558-3.35 0.558-0.558 0-1.675 0.558-2.233 1.117-0.558 0-0.558 0.558-1.116 0-1.117-0.558-2.233 0-3.35 0.558h-0.559c0 0 0-0.558 0.559-0.558 0.558-0.558 1.117-1.117 1.675-1.675 0.558-0.558 1.117-0.558 2.233-1.117-0.558-0.558-0.558-1.117-0.558-1.116-0.558-0.558-1.117-0.558-1.675 0-0.558 0.558-1.117 1.117-1.675 1.675-0.558 0.558-1.117 0.558-1.675 0-0.558-0.558-0.558-1.117 0-1.675 0-0.558 0.558-1.117 1.116-1.675 0.558-0.558 0.558-1.117 1.117-1.675-1.117-1.117-1.675-2.233-2.792-2.792-1.675-1.117-3.35-2.792-4.466-4.466-1.117-2.233-2.792-3.908-5.025-5.025-0.558-0.558-1.117-1.117-1.675-1.675-0.558-0.558-0.558-0.558-1.116-1.117-1.675 0.558-2.792 1.675-4.467 2.234-0.558 0-0.558 0.558-1.117 1.116-0.558 1.117-1.675 1.117-2.791 1.117-0.558 0-1.117-0.558-0.558-1.117 0.558-1.117 1.117-2.233 2.791-1.675 0 0 0.558 0 0.558-0.558 1.117-1.117 2.233-2.792 3.909-3.908-0.558-1.675-1.675-2.792-2.234-3.908-0.558-0.558-0.558-1.117-0.558-2.234 0-0.558 0-0.558-0.558-1.116 0 0-0.558 0-1.117 0.558-0.558 0.558-1.675 1.117-2.791 0 0-0.558 0-1.117 0.558-1.675l0.558-0.558c1.675-0.558 1.675-2.233 1.675-3.908v-0.559c-0.558-1.117-0.558-1.675 0.558-2.791 1.675-1.117 3.35-3.35 3.909-5.025 0.558-1.117 1.675-1.675 2.791-2.792 1.117-1.117 2.233-2.233 2.792-3.908h0.558c2.233 0.558 2.792-1.117 3.908-2.791 0-0.558 0-1.117 0.559-1.117 1.117-1.117 1.117-2.233 0.558-3.908 0-0.558-0.558-1.675-0.558-2.233 0-0.558 0-0.558-0.559-1.117-1.675-1.117-1.675-2.233 0-3.35 1.117-0.558 1.117-1.675 1.675-2.233 0.558-1.117 0.558-2.233 0.559-3.908-0.558-1.675-0.558-3.908-1.117-5.583-0.558-2.233-1.117-5.025-1.675-7.259 0-0.558 0-0.558 0-1.116 0-1.675 0-2.792-0.558-4.467-0.558-0.558-0.558-1.675-0.559-2.233-0.558-1.675-1.117-2.792-2.791-3.35-1.675-1.117-3.908-1.675-5.583-2.791-0.558-0.558-1.117 0-1.675 0.558-0.558 1.117-1.675 2.233-2.234 3.35-0.558 0.558-1.117 1.675-1.675 2.791-1.117 1.117-3.35 2.233-5.024 0.559-0.558-1.117-1.117-1.675 0-2.792 1.117-1.675 2.233-3.35 3.908-4.466 0.558-0.558 1.117-1.675 1.675-2.234 0.558-1.117 0.558-2.233 0.558-3.35-0.558-2.233-1.117-4.467-1.117-7.258 0-2.792 0-5.025 0.559-7.816 0.558-1.117 0.558-2.792 1.116-3.908 0-0.558 0.558-1.675 1.117-2.233 1.117-1.117 2.233-2.233 2.792-3.909 0.558-1.675 1.675-3.35 1.675-5.024 0-0.558 0.558-1.117 0.558-1.675 0-0.558 0.558-1.675 0.558-2.234-0.558-1.675 0-2.792 0.558-3.908 0.558-1.117 1.117-2.792 1.675-3.908 1.117-2.233 1.117-5.025 3.35-7.258 0.558-1.117 1.117-2.233 1.675-3.35 0.558-2.233 1.675-3.908 2.792-5.583 0.558-0.558 0.558-0.558 0.558-1.117 0.558-1.675 1.675-3.35 2.792-5.025 1.117-1.675 1.117-3.35 1.675-5.024 0-0.558 0-1.117 0.558-1.675 1.675-1.675 1.117-3.908 0.558-6.142-1.117-2.792-1.675-5.583-1.116-8.374 0-0.558 0-1.117 0.558-1.117 0.558-1.117 0.558-1.675 1.117-2.792v-0.558c1.117-1.117 2.233-2.792 3.908-3.35 2.233-1.117 4.467-1.675 7.258-2.233 2.233 0 4.467-1.117 6.141-3.35 0-0.558 0.558-0.558 1.117-1.117l0.558-0.558c0.558-1.117 1.117-1.675 1.675-2.233 1.117-1.117 2.233-2.792 3.35-3.908 1.117-1.117 2.233-2.792 3.908-4.467l0.559-0.558c1.117-1.117 2.233-2.233 3.349-2.792 1.117-1.117 2.233-2.233 3.35-3.35 1.117-1.117 1.675-2.233 2.792-3.35 1.117-0.558 2.233-1.675 3.35-2.791 1.117-1.117 2.233-2.233 2.791-2.792 1.117-1.117 2.792-2.233 3.909-2.791 1.117-0.558 2.233-1.117 2.791-2.792 0.558-1.675 1.117-2.792 1.675-4.466 0-1.117 0.558-2.233 1.117-3.35 0.558 0 1.117 0 2.233-0.558-0.558-0.558-1.117-0.558-1.117-1.117 0-0.558 0.558-1.117 0.559-1.117 0-0.558 0.558-1.117 0.558-1.675 0 0 0.558 0 0.558-0.558 0 0 0.558 0 0.559-0.558-1.117 0.558-1.675 0-2.234-0.559 0.558 0.558 1.117 0.558 2.234 1.117 0 0 0.558 0 0.558-0.558 0-0.558 0-1.117 0-1.117 0 0-0.558 0-1.117 0-0.558 0-1.117 0.558-1.675 0.558zM182.097 295.292c0-0.558-0.558-0.558-0.559-1.117-0.558-1.117 0-1.675 0.559-2.233 0.558-0.558 1.117-0.558 2.233-0.558 1.117 0.558 1.675 1.117 1.675 2.233 0 0.558 0 1.675 0 2.233 0.558 2.233 0.558 2.233 2.791 2.233 1.117 0 2.233 0 3.35 0 2.233-0.558 4.467-1.675 6.7-2.233 2.233-0.558 4.467-1.117 6.7-1.675 0.558 0 1.117 0 2.233 0 2.233 0.558 3.908 0 5.583-1.117 0.558-0.558 1.675-0.558 2.233-1.116 1.117-0.558 2.233-0.558 3.35-1.117 2.792-1.675 5.583-2.792 7.817-4.466 1.675-1.117 3.35-2.233 5.024-3.35 1.675-1.117 3.35-2.233 5.025-3.35 1.117-0.558 2.792-1.675 3.908-2.792 2.233-1.675 3.908-3.35 6.142-4.466 1.117-0.558 1.675-1.117 2.233-1.675 1.117-0.558 1.675-1.675 2.792-2.233 0.558-0.558 1.117-1.117 2.233-1.675 0.558-0.558 0.558-0.558 0.558-1.117 1.675-1.117 3.35-3.35 4.467-5.025 1.117-1.117 2.233-2.233 3.35-3.908 1.675-1.675 2.792-3.908 4.466-6.141 1.117-1.117 2.233-2.792 2.792-3.909 1.117-2.233 2.233-4.467 3.908-6.141v-0.558c1.117-2.233 2.233-4.467 3.35-6.7 1.675-2.792 2.792-6.141 4.466-8.933 0.558-1.117 1.117-2.233 1.117-3.35 1.117-2.233 1.675-4.467 2.233-6.7 0-0.558 0-0.558 0.559-1.116 1.675-3.35 2.792-6.7 3.349-10.608 0.558-2.233 1.117-4.467 1.675-6.7 1.117-3.35 1.117-6.141 1.675-9.491 0.558-2.233 0.558-5.025 0.559-7.258 0.558-3.35 0.558-7.258 0-10.608 0-2.792-0.558-6.141-0.559-8.933 0-2.792-0.558-5.025-1.116-7.817-0.558-2.792-1.117-5.025-1.675-7.816-1.117-2.233-1.675-4.467-2.234-7.258-0.558-2.233-1.675-3.908-1.674-6.142 0-1.675-0.558-3.35-2.234-3.908-1.675-0.558-2.792-1.117-4.466-2.233-3.35-2.233-5.025-5.025-4.467-8.375 0-1.675 0.558-3.908 1.117-5.583 0.558-1.675 1.117-3.35 0-4.467-0.558-1.675-1.675-2.792-2.233-3.908-1.117-1.675-1.675-2.792-2.792-3.908-1.117-2.233-2.233-4.467-3.908-6.141-2.233-2.792-3.908-5.583-6.7-7.817l-0.558-0.558c-1.675-2.233-3.35-4.467-5.583-6.142-1.117-1.117-2.233-2.233-3.35-2.791-0.558-0.558-1.117-1.117-2.233-1.675-1.675-1.117-3.35-1.675-4.467-2.792-1.675-1.675-3.908-2.792-5.583-3.908 0 0-0.558 0-0.558-0.558-2.233-1.117-3.908-1.675-6.142-2.792-2.233-1.117-4.467-1.675-6.7-1.675-0.558 0-0.558 0-1.116 0-0.558-0.558-1.675-0.558-2.233-0.558-0.558 0-0.558 0-1.117 0-1.117-0.558-2.792 0-3.908 0-2.233 0.558-4.467 0.558-6.7-0.558-2.792-1.117-5.025-2.233-7.258-3.35-1.675-1.117-2.792-2.233-4.467-3.35-3.35-2.792-6.7-6.141-10.608-8.933 0.558-2.792-0.558-3.35-2.791-3.35-1.117 0-2.233 0.558-3.35 1.117-0.558 0.558-0.558 0.558-1.117 1.116-1.675 1.117-2.792 2.792-4.466 3.909-2.792 1.675-3.908 1.117-6.142 0-0.558-0.558-1.117-1.117-1.675-1.675-1.117-1.117-2.233-2.792-2.791-3.909-1.117-2.233-3.35-2.233-5.583-2.233-1.117 0-2.792 0.558-3.908 0.558-2.233 0-4.467 1.117-5.584 2.792-1.117 1.675-2.233 3.35-3.908 5.025-0.558 0.558-1.675 1.117-2.233 2.233-1.117 1.117-2.233 1.117-3.35 0-0.558-0.558-1.117-0.558-1.675-1.117-0.558 0.558-1.117 1.117-1.117 1.675-0.558 1.117-1.117 2.233-1.674 3.909-0.558 1.675-1.675 3.35-2.792 4.466-0.558 0.558-0.558 0.558-1.117 1.117-0.558 1.117-2.233 1.675-3.35 1.675-1.117 1.117-2.233 2.792-2.791 3.908-0.558 1.117-1.117 2.233-1.675 3.908-0.558 0.558-0.558 1.675-1.117 2.233-0.558 1.117-0.558 1.675-0.558 2.792 0.558 1.675-0.558 2.233-2.233 2.791-1.117 0-1.117 0-1.675 1.117 0 1.675 0.558 2.792 1.116 4.467 0.558 0.558 1.117 1.675 1.117 2.233 0 1.117 0.558 1.675 1.675 2.233 0.558 0.558 1.117 1.117 1.675 1.117 0.558 0 0.558 0.558 1.117 0.558 0.558 0.558 1.117 0 1.116-0.558 0.558-1.675 1.117-3.35 1.117-5.025 0.558-2.233 0.558-3.908 1.116-6.142 0.558-1.117 1.117-1.675 1.675-2.233 0 0 0.558 0 1.117 0v0.559c-0.558 2.792-1.675 6.141-2.233 8.933-0.558 1.117-0.558 2.233-1.117 3.349 0 0.558-0.558 1.117-1.116 1.117-1.117 0.558-2.233 1.117-3.35 1.117-0.558 0-1.117 0-1.675 0-1.117-0.558-2.233-1.675-3.35-2.234-0.558-0.558-1.117-1.117-1.675-1.674-0.558-1.117-1.117-2.233-1.675-3.35-0.558-1.117-1.117-1.675-2.233-2.234-0.558-0.558-1.117-0.558-1.675-1.116-1.117-1.117-2.233-1.675-3.908-1.675-0.558 0-1.675 0-2.234 0-0.558 0-1.675 0.558-2.233 1.116-1.117 0.558-1.675 0.558-2.791 0-2.792-1.117-5.583-0.558-8.375 0.559-1.117 0.558-2.233 1.117-3.35 1.116-2.792 0-5.025 0-7.816 0-2.792 0-5.025-0.558-7.817-1.116-1.117 0-2.233 0-3.35 0-2.233 0.558-2.792 2.233-2.233 4.466 0.558 2.233 1.117 5.025 1.117 7.258 0 1.675 0 3.35 0 5.025 0 1.117 0 1.675 0 2.792 0 1.675-0.558 3.35-0.559 5.025-0.558 3.35-2.233 6.141-4.466 8.374-1.675 1.675-3.908 3.35-6.142 3.908-1.117 0.558-2.233 1.117-3.908 1.675-2.792 1.117-5.025 3.35-6.7 6.142-0.558 1.117-1.117 2.233-1.674 3.35-1.117 1.675-1.675 2.792-2.792 4.466-0.558 1.117-1.675 2.233-2.233 3.35-0.558 1.117-1.675 1.675-1.675 2.792-1.117 2.233-1.675 4.467-2.792 6.699-0.558 1.117-0.558 2.792-1.116 3.909-1.117 2.233-1.117 4.467-1.117 7.258 0 0.558 0 1.117 0 2.233 0 2.792-0.558 6.141-0.558 8.933 0 2.792 0 5.583 0.558 8.375 0 1.117 0 2.792 0 3.908 0 2.233 0.558 5.025 0.558 7.258 0 2.233 0 5.025 1.117 7.258v0.558c0.558 2.233 0.558 4.467 1.116 6.7 0 0.558 0 1.117 0.559 1.675 1.117 3.35 1.675 6.141 2.791 9.491 0.558 2.233 1.675 4.467 2.234 6.7 0.558 2.233 2.792 4.467 3.349 7.258v0c1.675 3.35 3.35 6.7 5.584 10.05 0.558 1.117 1.675 2.233 2.233 3.35 1.117 1.675 1.675 3.35 2.791 4.466 0.558 1.117 1.675 2.233 2.234 2.792 0.558 1.117 1.117 2.233 2.233 3.35 1.117 1.117 2.233 2.792 3.35 3.908 1.675 2.792 3.908 5.025 6.141 6.7 1.117 1.117 2.233 1.675 3.35 2.791 0.558 0.558 1.117 0.558 1.117 1.117 0.558 0.558 1.117 1.117 2.233 1.675 4.467 2.233 7.816 5.583 11.725 8.933 1.675 1.675 3.35 3.35 5.583 4.466 2.233 1.675 3.908 3.35 6.7 3.908 0 0 0.558 0 0.558 0.559 1.117 1.117 2.792 1.675 3.908 2.233 2.233 1.117 5.025 2.233 7.258 3.35 0.558 0.558 1.675 0.558 2.233 1.117 1.675 0.558 3.35 1.117 5.025 1.674 1.675 0.558 2.792 1.117 4.467 1.117h0.558c1.117 0.558 1.675 0.558 2.792 0 0.558 0 1.117 0 1.116 0.558 0 0.558 0.558 0.558 1.117 0.559 0.558 0 1.117 0 2.233 0 0.558-0.558 0.558-1.117 1.117-2.234 0.558 0.558 1.117 0.558 1.116 0.559 0.558 1.117 1.675 1.117 2.792 1.116h0.558c1.117 0 1.675 0 2.233-0.558 0-0.558 1.117-0.558 1.675-0.558 1.675 0.558 3.35 0.558 5.025 1.116 1.117 0.558 2.792 0.558 3.35-0.558 0.558-0.558 1.117-1.117 2.233-0.558 1.117 0.558 1.675 0.558 2.792 0 0.558 0 1.117 0 1.117 0 1.675 0.558 2.792 0.558 4.466 1.116 2.233 0.558 2.233 0.558 3.908-1.116 0.558-0.558 1.675-0.558 2.233 0 0.558 1.117 0.558 1.675 0.559 2.791 0.558 0 0.558 0 1.116-0.558 0-1.117 0.558-1.117 1.675-1.675 0.558 0.558 0.558 0.558 1.117 0.558 1.117 1.117 1.675 1.117 2.233-0.558 0-0.558 0-1.117 0.559-1.116 0.558 0 1.117 0.558 1.116 0.558 0.558 1.117 1.675 1.675 2.233 2.791 1.117 1.117 2.792 1.117 3.35 0 0.558-0.558 1.117-0.558 1.675-0.558 0-0.558 0-1.117 0-1.675 1.675 1.117 1.117 1.117 0.559 1.117zM89.417 34.559c1.675 0.558 2.792 0.558 3.349-0.558-1.117 0.558-2.233-0.558-3.349 0.558z" fill="#ffffff" fill-rule="nonzero" stroke="none" stroke-width="1" stroke-linecap="butt" stroke-linejoin="miter" stroke-miterlimit="10" stroke-dasharray="" stroke-dashoffset="0" font-family="none" font-weight="none" font-size="none" text-anchor="none" style="mix-blend-mode: normal" data-fill-palette-color="tertiary"></path></g><g transform="matrix(1,0,0,1,88.6825125832081,90)"><svg viewBox="0 0 142.6349748335838 180" height="180" width="142.6349748335838"><g><svg viewBox="0 0 192 242.29681423032542" height="180" width="142.6349748335838"><g><svg viewBox="0 0 192 242.29681423032542" height="242.29681423032542" width="192"><g id="textblocktransform"><svg viewBox="0 0 192 242.29681423032542" height="242.29681423032542" width="192" id="textblock"><g><svg viewBox="0 0 192 158.16315947542103" height="158.16315947542103" width="192"><g transform="matrix(1,0,0,1,0,0)"><svg width="192" viewBox="22.38275000000001 -6.6686099999999975 33.86095999999999 27.893504481167053" height="158.16315947542103" data-palette-color="#000000"><path d="M32.674 3.011v0l0.193 10.351c0.129 0.025 0.243 0.033 0.343 0.026v0c0.359-0.025 0.54-0.311 0.542-0.859v0l-0.097-11.861c0.312-0.316 0.909-0.621 1.791-0.916v0c0.845-0.252 1.613-0.402 2.305-0.45v0c1.636-0.113 2.886 0.175 3.748 0.864 0.863 0.696 1.336 1.632 1.417 2.809v0c0.045 0.658-0.118 2.157-0.492 4.495-0.38 2.338-0.937 5.501-1.67 9.488v0c-0.277 1.402-1.037 2.451-2.279 3.144v0c-1.095 0.597-2.567 0.959-4.416 1.086v0c-1.171 0.081-2.284 0.027-3.339-0.16-1.055-0.188-1.916-0.503-2.581-0.945v0c-0.981-1.823-2.018-4.355-3.11-7.594-1.098-3.232-1.98-6.522-2.646-9.871v0c0.913-1.58 2.481-2.447 4.702-2.6v0c2.86-0.197 4.723 0.8 5.589 2.993zM50.217 2.993l1.006-0.492 5.021 10.28c-0.259 0.609-0.699 1.228-1.319 1.857-0.62 0.629-1.466 1.206-2.539 1.729-1.072 0.524-2.101 0.733-3.087 0.629v0c-1.099-0.109-1.88-0.636-2.342-1.582v0l-4.599-9.417-3.406 1.663c-1.195-0.655-2.084-1.579-2.666-2.771v0c-0.395-0.809-0.607-1.577-0.636-2.304-0.035-0.725 0.054-1.347 0.267-1.867v0l15.123-7.387c0.498 0.306 0.992 0.725 1.482 1.257 0.49 0.532 0.886 1.107 1.187 1.724v0c0.562 1.15 0.72 2.119 0.474 2.907-0.24 0.785-0.788 1.387-1.645 1.805v0l-4.286 2.094c0.005 0.087 0.027 0.169 0.065 0.246v0c0.085 0.174 0.244 0.241 0.477 0.202v0c0.248-0.039 0.722-0.23 1.423-0.573z" opacity="1" transform="matrix(1,0,0,1,0,0)" fill="#ffffff" class="wordmark-text-0" data-fill-palette-color="primary" id="text-0"></path></svg></g></svg></g><g transform="matrix(1,0,0,1,57.4368,231.64382437242256)"><svg viewBox="0 0 77.1264 10.65298985790289" height="10.65298985790289" width="77.1264"><g transform="matrix(1,0,0,1,0,0)"><svg width="77.1264" viewBox="2.88 -37.96 362.5 50.07" height="10.65298985790289" data-palette-color="#000000"><path d="M33.06-17.5L37.87-33.13Q37.99-33.57 38.13-33.85 38.28-34.13 38.79-34.25L38.79-34.25 46-35.91Q46.04-35.91 46.12-35.94 46.19-35.96 46.24-35.96L46.24-35.96Q46.58-35.96 46.72-35.67 46.85-35.38 46.85-35.11L46.85-35.11Q46.85-35.06 46.84-34.91 46.83-34.77 46.8-34.72L46.8-34.72 36.69-4Q36.3-3 36.05-2.38 35.79-1.76 35.53-1.35 35.28-0.95 34.95-0.68 34.62-0.42 34.07-0.15 33.52 0.12 32.69 0.48 31.86 0.83 30.59 1.44L30.59 1.44Q30.15 1.66 29.91 1.66L29.91 1.66Q29.52 1.66 29.32 1.37 29.13 1.07 29 0.71L29 0.71 24.83-14.16 19.6-3.39Q19.48-3.1 19.04-2.61 18.6-2.12 18.05-1.61 17.5-1.1 16.96-0.62 16.41-0.15 16.06 0.15L16.06 0.15Q15.75 0.42 15.39 0.68 15.04 0.95 14.67 1.17 14.31 1.39 13.98 1.53 13.65 1.66 13.35 1.66L13.35 1.66Q12.72 1.66 12.52 0.95L12.52 0.95 3.05-32.45Q3-32.64 2.94-32.84 2.88-33.03 2.88-33.2L2.88-33.2Q2.88-33.81 3.17-34.23 3.47-34.64 4.2-34.94 4.93-35.23 6.15-35.41 7.37-35.6 9.25-35.72L9.25-35.72Q10.13-35.84 10.73-35.89 11.33-35.94 11.74-35.94L11.74-35.94Q12.45-35.94 12.67-35.72 12.89-35.5 13.06-34.99L13.06-34.99 18.09-15.63 22.27-22.8 20.58-30.15Q20.43-30.74 20.46-31.03L20.46-31.03Q20.46-31.59 20.75-31.93 21.04-32.28 21.73-32.5 22.41-32.71 23.52-32.89 24.63-33.06 26.25-33.28L26.25-33.28Q26.95-33.37 27.47-33.42 27.98-33.47 28.34-33.47L28.34-33.47Q29.08-33.47 29.35-33.25 29.61-33.03 29.74-32.54L29.74-32.54 33.06-17.5ZM60.08-27.25L60.08-27.25Q62.4-27.25 64.29-26.38 66.18-25.51 67.54-24.13 68.89-22.75 69.63-21.04 70.36-19.34 70.36-17.63L70.36-17.63Q70.36-16.11 69.43-14.59 68.5-13.06 66.83-11.84 65.16-10.62 62.81-9.86 60.47-9.11 57.66-9.11L57.66-9.11Q56.2-9.11 54.59-9.4L54.59-9.4Q54.69-8.35 55.2-7.59 55.71-6.84 56.49-6.35 57.27-5.86 58.26-5.63 59.25-5.4 60.3-5.4L60.3-5.4Q61.47-5.4 62.56-5.6 63.64-5.81 64.65-6.15 65.65-6.49 66.57-6.91 67.5-7.32 68.33-7.74L68.33-7.74Q68.55-7.79 68.71-7.82 68.87-7.86 69.02-7.86L69.02-7.86Q69.02-7.86 69-7.47 68.99-7.08 68.99-6.37 68.99-5.66 68.98-4.66 68.97-3.66 68.94-2.44L68.94-2.44Q69.02-2.32 69.04-2.2 69.06-2.08 69.06-2L69.06-2Q69.06-1.71 68.53-1.37 67.99-1.03 67.12-0.66 66.26-0.29 65.15 0.05 64.04 0.39 62.89 0.67 61.74 0.95 60.67 1.11 59.59 1.27 58.79 1.27L58.79 1.27Q56.15 1.27 53.67 0.35 51.19-0.56 49.28-2.27 47.36-3.98 46.21-6.42 45.07-8.86 45.07-11.91L45.07-11.91Q45.07-15.11 46.16-17.91 47.26-20.7 49.25-22.78 51.24-24.85 54-26.05 56.76-27.25 60.08-27.25ZM59.79-20.75L59.79-20.75Q58.79-20.75 57.94-20.32 57.1-19.9 56.41-19.1 55.71-18.31 55.2-17.2 54.69-16.09 54.37-14.75L54.37-14.75Q56.88-15.19 58.54-15.67 60.2-16.16 61.2-16.66 62.2-17.16 62.62-17.66 63.03-18.16 63.03-18.63L63.03-18.63Q63.03-19.07 62.71-19.46 62.38-19.85 61.89-20.14 61.4-20.43 60.83-20.59 60.25-20.75 59.79-20.75ZM84.52-17.43L83.71-7.96Q83.95-7.47 84.41-6.97 84.86-6.47 85.46-6.05 86.05-5.64 86.76-5.38 87.47-5.13 88.23-5.13L88.23-5.13Q89.28-5.13 90.2-5.94 91.13-6.76 91.83-8.14 92.52-9.52 92.91-11.29 93.31-13.06 93.31-14.97L93.31-14.97Q93.31-16.14 93.1-17.19 92.89-18.24 92.45-19.02 92.01-19.8 91.32-20.26 90.62-20.73 89.64-20.73L89.64-20.73Q88.06-20.73 86.74-19.8 85.42-18.87 84.52-17.43L84.52-17.43ZM74.63 1.2L74.63 1.2Q74.29 1.27 74.09 1.27L74.09 1.27Q73.31 1.27 73.31 0.34L73.31 0.34Q73.31 0.22 73.32 0.1 73.33-0.02 73.36-0.17L73.36-0.17 76.19-34.72Q76.19-34.79 76.2-34.86 76.22-34.94 76.22-34.99L76.22-34.99Q76.22-35.08 76.2-35.16 76.19-35.23 76.19-35.28L76.19-35.28Q76.19-35.5 76.35-35.63 76.51-35.77 77.17-35.94L77.17-35.94 84.03-37.57Q84.3-37.62 84.74-37.79 85.18-37.96 85.59-37.96L85.59-37.96Q85.91-37.96 86.19-37.82 86.47-37.67 86.47-37.26L86.47-37.26Q86.47-37.21 86.46-37.16 86.45-37.11 86.45-37.06L86.45-37.06Q86.42-36.94 86.32-35.99 86.23-35.03 86.1-33.68 85.98-32.32 85.83-30.77 85.69-29.22 85.57-27.87 85.44-26.51 85.35-25.56 85.25-24.61 85.22-24.49L85.22-24.49Q87.01-25.66 88.91-26.45 90.82-27.25 92.72-27.25L92.72-27.25Q95.23-27.25 97.07-26.21 98.9-25.17 100.09-23.45 101.29-21.73 101.86-19.48 102.44-17.24 102.44-14.84L102.44-14.84Q102.44-12.92 102.08-10.97 101.73-9.03 101.06-7.25 100.39-5.47 99.37-3.91 98.36-2.34 97.05-1.2 95.75-0.05 94.14 0.61 92.52 1.27 90.64 1.27L90.64 1.27Q88.37 1.27 86.49 0.27 84.61-0.73 83-2.32L83-2.32Q82.95-1.73 82.93-1.39 82.91-1.05 82.77-0.87 82.64-0.68 82.37-0.57 82.1-0.46 81.56-0.34L81.56-0.34Q81.29-0.27 80.62-0.11 79.95 0.05 79.01 0.26 78.07 0.46 76.94 0.71 75.8 0.95 74.63 1.2ZM122.04 1.27L117.59 1.27Q117.32 1.22 117.2 1 117.08 0.78 117.08 0.51L117.08 0.51Q117.08 0.29 117.18 0.12L117.18 0.12 120.18-5.62Q120.2-5.71 120.27-6.37 120.33-7.03 120.4-8.02 120.47-9.01 120.56-10.23 120.64-11.45 120.74-12.65 120.84-13.84 120.93-14.93 121.01-16.02 121.08-16.75L121.08-16.75Q121.11-17.04 121.16-17.64 121.21-18.24 121.25-19.02 121.3-19.8 121.38-20.7 121.45-21.61 121.52-22.51L121.52-22.51 121.87-27.61Q121.21-27.47 120.5-27.31 119.79-27.15 119.12-27.03 118.45-26.9 117.85-26.82 117.25-26.73 116.81-26.73L116.81-26.73Q116.54-26.73 116.41-26.98 116.27-27.22 116.27-27.49L116.27-27.49Q116.27-27.81 116.42-27.95L116.42-27.95 122.62-33.74Q123.38-34.42 124.12-34.85 124.87-35.28 125.92-35.52 126.97-35.77 128.49-35.85 130.02-35.94 132.36-35.94L132.36-35.94Q136.37-35.94 139.47-35.11 142.57-34.28 144.72-32.74L144.72-32.74Q146.3-31.64 147.55-30.44 148.79-29.25 149.65-27.8 150.5-26.34 150.94-24.6 151.38-22.85 151.38-20.65L151.38-20.65Q151.38-16.48 150.14-13.23 148.89-9.99 146.74-7.56 144.59-5.13 141.73-3.44 138.86-1.76 135.6-0.71 132.34 0.34 128.86 0.81 125.38 1.27 122.04 1.27L122.04 1.27ZM131.78-28.13L131.78-28.13 131.48-25.17Q131.34-23.63 131.18-21.89 131.02-20.14 130.87-18.35 130.73-16.55 130.58-14.81 130.43-13.06 130.31-11.55 130.19-10.03 130.09-8.84 129.99-7.64 129.92-6.93L129.92-6.93 129.85-6.2Q132.8-6.2 134.84-7.15 136.88-8.11 138.15-9.78 139.42-11.45 139.99-13.7 140.57-15.94 140.57-18.53L140.57-18.53Q140.57-20.39 140.05-22.11 139.54-23.83 138.56-25.39L138.56-25.39Q137.59-26.95 136.17-27.73 134.76-28.52 132.97-28.52L132.97-28.52Q132.68-28.52 132.34-28.38 132-28.25 131.78-28.13ZM168.59-27.25L168.59-27.25Q170.91-27.25 172.8-26.38 174.69-25.51 176.05-24.13 177.4-22.75 178.14-21.04 178.87-19.34 178.87-17.63L178.87-17.63Q178.87-16.11 177.94-14.59 177.01-13.06 175.34-11.84 173.67-10.62 171.33-9.86 168.98-9.11 166.17-9.11L166.17-9.11Q164.71-9.11 163.1-9.4L163.1-9.4Q163.2-8.35 163.71-7.59 164.22-6.84 165-6.35 165.78-5.86 166.77-5.63 167.76-5.4 168.81-5.4L168.81-5.4Q169.98-5.4 171.07-5.6 172.16-5.81 173.16-6.15 174.16-6.49 175.09-6.91 176.01-7.32 176.84-7.74L176.84-7.74Q177.06-7.79 177.22-7.82 177.38-7.86 177.53-7.86L177.53-7.86Q177.53-7.86 177.51-7.47 177.5-7.08 177.5-6.37 177.5-5.66 177.49-4.66 177.48-3.66 177.45-2.44L177.45-2.44Q177.53-2.32 177.55-2.2 177.58-2.08 177.58-2L177.58-2Q177.58-1.71 177.04-1.37 176.5-1.03 175.63-0.66 174.77-0.29 173.66 0.05 172.55 0.39 171.4 0.67 170.25 0.95 169.18 1.11 168.1 1.27 167.3 1.27L167.3 1.27Q164.66 1.27 162.18 0.35 159.7-0.56 157.79-2.27 155.87-3.98 154.72-6.42 153.58-8.86 153.58-11.91L153.58-11.91Q153.58-15.11 154.68-17.91 155.77-20.7 157.76-22.78 159.75-24.85 162.51-26.05 165.27-27.25 168.59-27.25ZM168.3-20.75L168.3-20.75Q167.3-20.75 166.45-20.32 165.61-19.9 164.92-19.1 164.22-18.31 163.71-17.2 163.2-16.09 162.88-14.75L162.88-14.75Q165.39-15.19 167.05-15.67 168.71-16.16 169.71-16.66 170.72-17.16 171.13-17.66 171.55-18.16 171.55-18.63L171.55-18.63Q171.55-19.07 171.22-19.46 170.89-19.85 170.4-20.14 169.91-20.43 169.34-20.59 168.76-20.75 168.3-20.75ZM199.45-27L199.45-27Q199.55-27.25 199.81-27.25L199.81-27.25Q199.86-27.25 199.91-27.23 199.96-27.22 200.01-27.22L200.01-27.22Q201.84-26.51 203.77-26.06 205.7-25.61 207.6-25.2L207.6-25.2Q208.07-25.1 208.07-24.66L208.07-24.66Q208.07-24.34 207.77-23.68L207.77-23.68 197.71-2.29Q197.52-1.86 197.37-1.59 197.23-1.32 197.08-1.15 196.93-0.98 196.76-0.9 196.59-0.83 196.35-0.78L196.35-0.78Q194.49-0.42 192.59 0.06 190.68 0.54 188.63 1.25L188.63 1.25Q188.58 1.25 188.56 1.26 188.53 1.27 188.51 1.27L188.51 1.27 188.34 1.27Q188.22 1.27 188.14 1.18 188.07 1.1 188.05 1.03L188.05 1.03Q187.68-0.02 187.2-1.68 186.73-3.34 186.17-5.4 185.61-7.45 184.99-9.77 184.38-12.08 183.75-14.48 183.11-16.87 182.49-19.23 181.87-21.58 181.28-23.68L181.28-23.68Q181.06-24.44 181.06-24.76L181.06-24.76Q181.06-25.1 181.45-25.2L181.45-25.2Q183.36-25.61 185.41-26.06 187.46-26.51 189.29-27.22L189.29-27.22Q189.36-27.25 189.51-27.25L189.51-27.25Q189.83-27.25 189.85-27L189.85-27 193.08-10.6Q193.2-10.89 193.49-11.66 193.78-12.43 194.2-13.5 194.61-14.58 195.11-15.87 195.61-17.16 196.14-18.51 196.66-19.85 197.18-21.18 197.69-22.51 198.14-23.66 198.59-24.8 198.94-25.68 199.28-26.56 199.45-27ZM223.1-27.25L223.1-27.25Q225.42-27.25 227.31-26.38 229.21-25.51 230.56-24.13 231.92-22.75 232.65-21.04 233.38-19.34 233.38-17.63L233.38-17.63Q233.38-16.11 232.45-14.59 231.53-13.06 229.85-11.84 228.18-10.62 225.84-9.86 223.49-9.11 220.69-9.11L220.69-9.11Q219.22-9.11 217.61-9.4L217.61-9.4Q217.71-8.35 218.22-7.59 218.73-6.84 219.51-6.35 220.3-5.86 221.28-5.63 222.27-5.4 223.32-5.4L223.32-5.4Q224.49-5.4 225.58-5.6 226.67-5.81 227.67-6.15 228.67-6.49 229.6-6.91 230.52-7.32 231.35-7.74L231.35-7.74Q231.57-7.79 231.73-7.82 231.89-7.86 232.04-7.86L232.04-7.86Q232.04-7.86 232.03-7.47 232.01-7.08 232.01-6.37 232.01-5.66 232-4.66 231.99-3.66 231.96-2.44L231.96-2.44Q232.04-2.32 232.06-2.2 232.09-2.08 232.09-2L232.09-2Q232.09-1.71 231.55-1.37 231.01-1.03 230.15-0.66 229.28-0.29 228.17 0.05 227.06 0.39 225.91 0.67 224.76 0.95 223.69 1.11 222.61 1.27 221.81 1.27L221.81 1.27Q219.17 1.27 216.69 0.35 214.22-0.56 212.3-2.27 210.38-3.98 209.24-6.42 208.09-8.86 208.09-11.91L208.09-11.91Q208.09-15.11 209.19-17.91 210.29-20.7 212.27-22.78 214.26-24.85 217.02-26.05 219.78-27.25 223.1-27.25ZM222.81-20.75L222.81-20.75Q221.81-20.75 220.97-20.32 220.12-19.9 219.43-19.1 218.73-18.31 218.22-17.2 217.71-16.09 217.39-14.75L217.39-14.75Q219.9-15.19 221.56-15.67 223.22-16.16 224.23-16.66 225.23-17.16 225.64-17.66 226.06-18.16 226.06-18.63L226.06-18.63Q226.06-19.07 225.73-19.46 225.4-19.85 224.91-20.14 224.42-20.43 223.85-20.59 223.27-20.75 222.81-20.75ZM238.11-20.65L238.11-20.65Q238.41-24 238.59-27.27 238.77-30.54 238.99-33.98L238.99-33.98Q239.04-34.79 239.15-35.1 239.26-35.4 239.7-35.5L239.7-35.5Q241.97-35.91 244.25-36.34 246.54-36.77 248.83-37.48L248.83-37.48Q248.91-37.5 249.05-37.5L249.05-37.5Q249.32-37.5 249.32-37.26L249.32-37.26 246.15-2.39 246.15-1.98Q246.15-1.76 245.98-1.62 245.81-1.49 245.17-1.32L245.17-1.32 238.77 1.03Q238.51 1.15 238.07 1.28 237.63 1.42 237.21 1.42L237.21 1.42Q236.87 1.42 236.61 1.25 236.36 1.07 236.36 0.66L236.36 0.66 236.36 0.51Q236.55-1.95 236.74-4.31 236.92-6.67 237.13-9.18 237.33-11.69 237.58-14.5 237.82-17.31 238.11-20.65ZM265.04 1.27L265.04 1.27Q261.6 1.27 259 0.15 256.4-0.98 254.64-2.84 252.88-4.71 252-7.14 251.12-9.57 251.12-12.18L251.12-12.18Q251.12-14.79 251.98-17.15 252.83-19.51 254.37-21.37 255.91-23.24 258.06-24.5 260.21-25.76 262.79-26.2L262.79-26.2Q263.19-26.22 263.19-26.37L263.19-26.37Q263.19-26.64 263.12-26.87 263.06-27.1 263.06-27.27L263.06-27.27Q263.06-27.54 263.16-27.64 263.26-27.73 263.38-27.73L263.38-27.73Q268.04-27.73 271.32-26.67 274.59-25.61 276.64-23.78 278.69-21.95 279.62-19.46 280.54-16.97 280.54-14.11L280.54-14.11Q280.54-10.47 279.32-7.62 278.1-4.76 275.99-2.78 273.88-0.81 271.06 0.23 268.24 1.27 265.04 1.27ZM260.52-12.45L260.52-12.45Q260.52-11.13 260.81-9.84 261.09-8.54 261.73-7.5 262.38-6.45 263.43-5.8 264.48-5.15 266.04-5.15L266.04-5.15Q267.17-5.2 268.01-5.65 268.85-6.1 269.46-6.82 270.07-7.54 270.47-8.45 270.88-9.35 271.11-10.31 271.34-11.28 271.44-12.21 271.54-13.13 271.54-13.89L271.54-13.89Q271.54-15.16 271.16-16.38 270.78-17.6 270.05-18.53 269.31-19.46 268.23-20.03 267.14-20.61 265.72-20.61L265.72-20.61Q264.26-20.61 263.26-19.74 262.26-18.87 261.66-17.6 261.06-16.33 260.79-14.93 260.52-13.53 260.52-12.45ZM294.65-17.41L294.58-17.04Q294.43-14.7 294.32-13.23 294.21-11.77 294.14-10.85 294.07-9.94 294.02-9.41 293.97-8.89 293.94-8.42L293.94-8.42Q294.51-6.96 295.6-6.04 296.7-5.13 298.24-5.13L298.24-5.13Q299.58-5.13 300.6-5.97 301.61-6.81 302.28-8.15 302.95-9.5 303.3-11.16 303.64-12.82 303.64-14.45L303.64-14.45Q303.64-15.8 303.41-16.94 303.17-18.09 302.71-18.93 302.25-19.78 301.55-20.25 300.85-20.73 299.9-20.73L299.9-20.73Q299.12-20.73 298.35-20.42 297.58-20.12 296.87-19.64 296.17-19.17 295.59-18.57 295.02-17.97 294.65-17.41L294.65-17.41ZM295.07-24.19L295.07-24.19Q297.12-25.59 299.36-26.42 301.61-27.25 304.05-27.25L304.05-27.25Q306.35-27.25 308.02-26.31 309.69-25.37 310.79-23.77 311.89-22.17 312.41-20.09 312.94-18.02 312.94-15.75L312.94-15.75Q312.94-13.77 312.55-11.74 312.16-9.72 311.4-7.82 310.64-5.93 309.52-4.27 308.4-2.61 306.95-1.38 305.49-0.15 303.71 0.56 301.93 1.27 299.85 1.27L299.85 1.27Q298.02 1.27 296.35 0.54 294.68-0.2 293.21-1.37L293.21-1.37Q293.21-1.25 293.15-0.48 293.09 0.29 292.99 1.39 292.89 2.49 292.77 3.75 292.65 5 292.55 6.1 292.46 7.2 292.39 7.97 292.33 8.74 292.33 8.86L292.33 8.86Q292.33 9.06 292.35 9.19 292.36 9.33 292.36 9.45L292.36 9.45Q292.36 9.64 292.17 9.78 291.99 9.91 291.36 10.08L291.36 10.08 284.94 11.72Q284.67 11.79 284.23 11.95 283.79 12.11 283.37 12.11L283.37 12.11Q283.03 12.11 282.78 11.94 282.52 11.77 282.52 11.3L282.52 11.3 285.5-24.44Q285.57-25.24 285.68-25.55 285.79-25.85 286.23-25.95L286.23-25.95Q288.45-26.39 290.8-26.84 293.14-27.29 295.36-28L295.36-28Q295.56-28 295.59-27.94 295.63-27.88 295.63-27.76L295.63-27.76Q295.63-27.71 295.62-27.61 295.6-27.51 295.54-27.17 295.48-26.83 295.37-26.14 295.26-25.44 295.07-24.19ZM330.56-27.25L330.56-27.25Q332.88-27.25 334.77-26.38 336.67-25.51 338.02-24.13 339.38-22.75 340.11-21.04 340.84-19.34 340.84-17.63L340.84-17.63Q340.84-16.11 339.91-14.59 338.99-13.06 337.31-11.84 335.64-10.62 333.3-9.86 330.95-9.11 328.15-9.11L328.15-9.11Q326.68-9.11 325.07-9.4L325.07-9.4Q325.17-8.35 325.68-7.59 326.19-6.84 326.97-6.35 327.76-5.86 328.74-5.63 329.73-5.4 330.78-5.4L330.78-5.4Q331.95-5.4 333.04-5.6 334.13-5.81 335.13-6.15 336.13-6.49 337.06-6.91 337.99-7.32 338.82-7.74L338.82-7.74Q339.04-7.79 339.19-7.82 339.35-7.86 339.5-7.86L339.5-7.86Q339.5-7.86 339.49-7.47 339.47-7.08 339.47-6.37 339.47-5.66 339.46-4.66 339.45-3.66 339.43-2.44L339.43-2.44Q339.5-2.32 339.52-2.2 339.55-2.08 339.55-2L339.55-2Q339.55-1.71 339.01-1.37 338.47-1.03 337.61-0.66 336.74-0.29 335.63 0.05 334.52 0.39 333.37 0.67 332.22 0.95 331.15 1.11 330.08 1.27 329.27 1.27L329.27 1.27Q326.63 1.27 324.15 0.35 321.68-0.56 319.76-2.27 317.84-3.98 316.7-6.42 315.55-8.86 315.55-11.91L315.55-11.91Q315.55-15.11 316.65-17.91 317.75-20.7 319.74-22.78 321.73-24.85 324.48-26.05 327.24-27.25 330.56-27.25ZM330.27-20.75L330.27-20.75Q329.27-20.75 328.43-20.32 327.58-19.9 326.89-19.1 326.19-18.31 325.68-17.2 325.17-16.09 324.85-14.75L324.85-14.75Q327.37-15.19 329.03-15.67 330.69-16.16 331.69-16.66 332.69-17.16 333.1-17.66 333.52-18.16 333.52-18.63L333.52-18.63Q333.52-19.07 333.19-19.46 332.86-19.85 332.37-20.14 331.88-20.43 331.31-20.59 330.73-20.75 330.27-20.75ZM365.38-27.44L363.86-19.87Q363.35-19.92 362.71-19.98 362.08-20.04 361.37-20.04L361.37-20.04Q360.3-20.04 359.19-19.86 358.08-19.68 357.12-19.14 356.17-18.6 355.49-17.66 354.8-16.72 354.61-15.23L354.61-15.23Q354.44-13.43 354.33-12.27 354.22-11.11 354.17-10.36 354.12-9.62 354.08-9.17 354.05-8.72 354.02-8.33L354.02-8.33Q354.02-8.23 353.99-7.79 353.95-7.35 353.88-6.76 353.8-6.18 353.74-5.49 353.68-4.81 353.61-4.22 353.53-3.64 353.5-3.2 353.46-2.76 353.46-2.66L353.46-2.66Q353.46-2.47 353.47-2.33 353.49-2.2 353.49-2.08L353.49-2.08Q353.49-1.88 353.3-1.75 353.12-1.61 352.48-1.44L352.48-1.44 346.01 0.88Q345.75 0.98 345.31 1.12 344.87 1.27 344.45 1.27L344.45 1.27Q344.11 1.27 343.85 1.1 343.6 0.93 343.6 0.51L343.6 0.51 345.7-23.68Q345.77-24.49 345.88-24.79 345.99-25.1 346.43-25.2L346.43-25.2Q348.65-25.63 351.02-26.09 353.39-26.54 355.61-27.25L355.61-27.25Q355.8-27.25 355.84-27.19 355.88-27.12 355.88-27L355.88-27Q355.88-26.95 355.87-26.86 355.85-26.76 355.79-26.42 355.73-26.07 355.62-25.38 355.51-24.68 355.32-23.44L355.32-23.44Q356.44-24.32 357.79-25.05 359.15-25.78 360.52-26.31 361.88-26.83 363.15-27.14 364.42-27.44 365.38-27.44L365.38-27.44Z" opacity="1" transform="matrix(1,0,0,1,0,0)" fill="#ffffff" class="slogan-text-1" data-fill-palette-color="secondary" id="text-1"></path></svg></g></svg></g></svg></g></svg></g><g></g></svg></g></svg></g></svg></g><defs></defs></svg><rect width="320" height="360" fill="none" stroke="none" visibility="hidden"></rect></g></svg></g></svg>